<?xml version="1.0" encoding="UTF-8" standalone="no" ?>
<!DOCTYPE svg PUBLIC "-//W3C//DTD SVG 1.1//EN" "http://www.w3.org/Graphics/SVG/1.1/DTD/svg11.dtd">
<svg xmlns="http://www.w3.org/2000/svg" xmlns:xlink="http://www.w3.org/1999/xlink" version="1.1" width="1080" height="1080" viewBox="0 0 1080 1080" xml:space="preserve">
<desc>Created with Fabric.js 5.2.4</desc>
<defs>
</defs>
<g transform="matrix(1 0 0 1 540 540)" id="efe48b64-0a40-48c0-bf14-d04ffffefa41"  >
<rect style="stroke: none; stroke-width: 1; stroke-dasharray: none; stroke-linecap: butt; stroke-dashoffset: 0; stroke-linejoin: miter; stroke-miterlimit: 4; fill: rgb(255,255,255); fill-rule: nonzero; opacity: 1; visibility: hidden;" vector-effect="non-scaling-stroke"  x="-540" y="-540" rx="0" ry="0" width="1080" height="1080" />
</g>
<g transform="matrix(1 0 0 1 540 540)" id="bfbe232f-2309-4b0b-8ab2-f52af877ba4d"  >
</g>
<g transform="matrix(1.33 0 0 -1.33 540 540)" clip-path="url(#CLIPPATH_38)"  >
<clipPath id="CLIPPATH_38" >
	<path transform="matrix(1 0 0 1 0 0) translate(-420.94, -297.64)" d="M 0 595.276 L 841.89 595.276 L 841.89 0 L 0 0 Z" stroke-linecap="round" />
</clipPath>
<path style="stroke: rgb(0,0,0); stroke-width: 2; stroke-dasharray: none; stroke-linecap: butt; stroke-dashoffset: 0; stroke-linejoin: miter; stroke-miterlimit: 10; fill: rgb(119,82,158); fill-rule: nonzero; opacity: 1;" vector-effect="non-scaling-stroke"  transform=" translate(0, -131.97)" d="M 0 0 C -104.8 0 -189.75 84.95 -189.75 189.75 C -189.75 294.55 -104.8 379.5 0 379.5 C 104.8 379.5 189.75 294.55 189.75 189.75 C 189.75 84.95 104.8 0 0 0 Z M 0 406.75 C -119.85 406.75 -217 309.6 -217 189.75 C -217 182.95 -216.69 176.15 -216.06 169.37 C -215.01 158.16 -213.09 147.02 -210.32 136.1 C -207.60999999999999 125.46 -203.73 115.27 -200.22 104.88999999999999 C -193.64 85.47999999999999 -183.42 67.33999999999999 -172.52 50.04999999999998 C -162.58 34.29999999999998 -151.82000000000002 19.069999999999983 -140.76000000000002 4.089999999999982 C -114.26000000000002 -31.820000000000014 -99.91000000000003 -51.36000000000002 -69.75000000000001 -84.25000000000003 C -57.72000000000001 -97.36000000000003 -46.47000000000001 -111.13000000000002 -33.420000000000016 -123.28000000000003 C -25.500000000000014 -130.65000000000003 -16.750000000000014 -139.15000000000003 -6.020000000000017 -142.09000000000003 C 5.169999999999982 -145.14000000000004 15.229999999999983 -138.01000000000002 23.62999999999998 -131.34000000000003 C 40.829999999999984 -117.68000000000004 54.48999999999998 -100.35000000000004 69.24999999999997 -84.25000000000003 C 99.40999999999997 -51.36000000000003 113.75999999999996 -31.82000000000003 140.26 4.089999999999975 C 147.95 14.509999999999975 155.48 25.039999999999974 162.7 35.78999999999998 C 170.85 47.89999999999998 178.67999999999998 60.27999999999997 185.56 73.15999999999997 C 187.94 77.60999999999997 190.19 82.11999999999998 192.24 86.71999999999997 C 193.99 90.64999999999998 195.38 94.72999999999998 197.08 98.67999999999998 C 198.72 102.50999999999998 200.45000000000002 106.28999999999998 201.97 110.17999999999998 C 205.12 118.20999999999998 207.79 126.41999999999997 209.97 134.76 C 212.45 144.26999999999998 214.29 153.95 215.45 163.70999999999998 C 216.48999999999998 172.34999999999997 217 181.04999999999998 217 189.74999999999997 C 217 309.59999999999997 119.85 406.75 0 406.75 z" stroke-linecap="round" />
</g>
<g transform="matrix(1.33 0 0 -1.33 540 462.32)" clip-path="url(#CLIPPATH_39)"  >
<clipPath id="CLIPPATH_39" >
	<path transform="matrix(1 0 0 1 0 -57.78) translate(-420.94, -297.64)" d="M 0 595.276 L 841.89 595.276 L 841.89 0 L 0 0 Z" stroke-linecap="round" />
</clipPath>
<path style="stroke: rgb(0,0,0); stroke-width: 2; stroke-dasharray: none; stroke-linecap: butt; stroke-dashoffset: 0; stroke-linejoin: miter; stroke-miterlimit: 10; fill: rgb(119,82,158); fill-opacity: 0.7; fill-rule: nonzero; opacity: 1;" vector-effect="non-scaling-stroke"  transform=" translate(0, -172.25)" d="M 0 0 C -21.11 0 -41.34 3.8 -60.03 10.75 C -61.910000000000004 22.5 -54.17 35.4 -46.410000000000004 43.62 C -35.71000000000001 54.98 -20.190000000000005 62.81 -4.730000000000004 60.76 C 3.6699999999999964 59.65 11.409999999999997 55.78 18.969999999999995 51.97 C 25.799999999999997 48.53 32.629999999999995 45.089999999999996 39.449999999999996 41.65 C 48.92999999999999 36.879999999999995 56.81999999999999 32.3 67.81 33.53 C 76.72 34.53 85.35 38.64 91.41 45.3 C 95.14999999999999 49.4 97.89 54.31999999999999 99.78 59.519999999999996 C 101.31 63.779999999999994 100.6 70.21 105.49 70.94 C 107.89999999999999 71.31 109.77 73.38 110.58999999999999 75.67 C 111.41999999999999 77.96000000000001 111.38999999999999 80.46000000000001 111.35999999999999 82.89 C 111.31999999999998 86.32000000000001 111.27999999999999 89.76 111.22999999999999 93.19 C 111.22999999999999 93.57 111.25999999999999 94.03 111.57999999999998 94.23 C 111.86999999999999 94.41000000000001 112.23999999999998 94.3 112.55999999999999 94.2 C 116.47999999999999 92.91 120.72999999999999 92.60000000000001 124.79999999999998 93.3 C 134.63 95 133.80999999999997 103.85 131.74999999999997 111.61 C 130.29999999999998 117.1 127.73999999999997 122.22 125.38999999999997 127.4 C 121.88999999999997 135.1 118.83999999999997 143.01 116.25999999999998 151.08 C 114.22999999999998 157.43 114.79999999999998 157.69000000000003 118.22999999999998 162.9 C 120.96999999999997 167.07 122.51999999999998 172.1 123.96999999999997 176.84 C 129.18999999999997 193.92000000000002 131.99999999999997 208.76 128.30999999999997 226.48000000000002 C 117.40999999999997 278.79 70.04999999999998 316.70000000000005 18.889999999999972 326.66 C -34.95000000000003 337.13000000000005 -94.63000000000002 304.20000000000005 -120.55000000000003 257.24 C -132.94000000000003 234.81 -138.20000000000002 208.29000000000002 -134.07000000000002 183 C -132.36 172.48 -129.08 162.29 -126.76000000000002 151.88 C -124.45000000000002 141.47 -123.11000000000001 130.60999999999999 -125.32000000000002 120.17999999999999 C -126.65000000000002 113.91999999999999 -129.38000000000002 107.86999999999999 -133.50000000000003 102.94999999999999 C -137.36000000000004 98.32 -145.67000000000002 94.23999999999998 -152.21000000000004 91.55999999999999 C -165.01000000000005 115.63 -172.25000000000003 143.1 -172.25000000000003 172.25 C -172.25000000000003 267.38 -95.13000000000002 344.5 -2.842170943040401e-14 344.5 C 95.12999999999997 344.5 172.24999999999997 267.38 172.24999999999997 172.25 C 172.25 77.12 95.13 0 0 0 Z M -82.36 20.93 C -84.92 22.32 -87.44 23.78 -89.92 25.3 C -90.91 25.91 -91.89 26.53 -92.87 27.16 C -93.36 27.47 -93.84 27.79 -94.33 28.11 C -94.78 28.41 -95.21 28.66 -95.37 29.22 C -95.44 29.49 -95.45 29.779999999999998 -95.45 30.06 C -95.43 31.52 -95.10000000000001 32.949999999999996 -94.76 34.36 C -94.4 35.839999999999996 -94 37.3 -93.63000000000001 38.78 C -93.62 38.82 -93.61000000000001 38.870000000000005 -93.60000000000001 38.910000000000004 C -91.37 47.790000000000006 -87.38000000000001 56.2 -82.2 63.730000000000004 C -72.34 78.07000000000001 -58.39 89.21000000000001 -43.43 97.83000000000001 C -43.17 97.98000000000002 -42.91 98.13000000000001 -42.64 98.28000000000002 C -29.55 105.70000000000002 -15.04 110.68000000000002 -2.8500000000000014 119.65000000000002 C 10.569999999999999 129.52 16.349999999999998 144.40000000000003 19.58 160.21000000000004 C 22.4 174.04000000000005 23.169999999999998 193.03000000000003 14.579999999999998 205.12000000000003 C 3.129999999999999 221.23000000000002 -25.75 212.38000000000002 -25.75 192.25000000000003 C -25.75 180.65000000000003 -15.68 171.25000000000003 -3.25 171.25000000000003 C -0.9300000000000002 171.25000000000003 1.2999999999999998 171.58000000000004 3.4000000000000004 172.18000000000004 C 5.29 159.60000000000002 -0.9799999999999995 146.84000000000003 -10.15 138.01000000000005 C -20.130000000000003 128.40000000000003 -33.04 123.45000000000005 -44.9 116.71000000000005 C -57.4 109.63000000000005 -69.75999999999999 102.10000000000005 -80.6 92.60000000000005 C -81.39999999999999 91.90000000000005 -82.19 91.18000000000005 -82.97 90.46000000000005 C -90.49 83.48000000000005 -97.22 75.48000000000005 -102.24 66.51000000000005 C -104.74 62.04000000000005 -106.81 57.310000000000045 -108.17999999999999 52.37000000000005 C -108.94999999999999 49.57000000000005 -109.42999999999999 46.73000000000005 -109.92999999999999 43.880000000000045 C -109.99999999999999 43.530000000000044 -110.05999999999999 43.170000000000044 -110.22999999999999 42.850000000000044 C -110.39999999999999 42.530000000000044 -110.69999999999999 42.26000000000004 -111.04999999999998 42.21000000000004 C -112.23999999999998 42.060000000000045 -120.09999999999998 50.26000000000005 -122.01999999999998 52.030000000000044 C -125.77999999999999 55.50000000000004 -129.39999999999998 59.12000000000005 -132.77999999999997 62.96000000000004 C -134.46999999999997 64.87000000000005 -136.09999999999997 66.83000000000004 -137.66999999999996 68.83000000000004 C -138.86999999999995 70.37000000000005 -140.13999999999996 71.80000000000004 -141.00999999999996 73.56000000000004 C -141.11999999999998 73.77000000000004 -141.21999999999997 74.00000000000004 -141.22999999999996 74.23000000000005 C -141.25999999999996 74.79000000000005 -140.80999999999997 75.23000000000005 -140.38999999999996 75.59000000000005 C -135.86999999999995 79.42000000000004 -131.15999999999997 82.59000000000005 -127.20999999999995 87.10000000000005 C -123.43999999999996 91.41000000000005 -120.20999999999995 96.18000000000005 -117.34999999999995 101.14000000000004 C -112.07999999999996 110.29000000000005 -108.03999999999995 120.33000000000004 -107.50999999999995 130.98000000000005 C -106.83999999999995 144.71000000000004 -111.95999999999995 157.96000000000004 -114.70999999999995 171.43000000000006 C -121.83999999999995 206.37000000000006 -112.09999999999995 244.37000000000006 -89.02999999999994 271.57000000000005 C -45.019999999999946 323.46000000000004 38.65000000000006 325.30000000000007 84.12000000000006 274.26000000000005 C 99.98000000000006 256.47 112.33000000000007 232.37000000000006 113.83000000000007 208.30000000000007 C 114.72000000000007 194.01000000000008 111.94000000000007 179.66000000000008 100.75000000000007 169.91000000000008 C 99.40000000000008 168.7400000000001 97.93000000000008 167.60000000000008 97.16000000000007 165.9900000000001 C 96.12000000000006 163.8300000000001 96.55000000000007 161.2800000000001 97.04000000000006 158.9300000000001 C 98.44000000000007 152.32000000000008 101.33000000000007 146.4900000000001 103.48000000000006 140.0700000000001 C 106.05000000000005 132.3600000000001 108.62000000000006 124.6500000000001 111.19000000000005 116.9500000000001 C 111.87000000000006 114.9100000000001 112.54000000000005 112.63000000000011 111.67000000000006 110.6600000000001 C 110.33000000000006 107.65000000000009 106.31000000000006 107.15000000000009 103.02000000000005 107.3300000000001 C 100.05000000000005 107.4900000000001 97.49000000000005 107.8500000000001 94.51000000000005 107.5900000000001 C 94.12000000000005 107.5500000000001 93.69000000000005 107.5000000000001 93.43000000000005 107.2000000000001 C 93.17000000000004 106.9100000000001 93.16000000000005 106.4700000000001 93.18000000000005 106.0800000000001 C 93.37000000000005 99.8600000000001 93.56000000000004 93.6400000000001 93.74000000000005 87.4200000000001 C 93.78000000000006 86.3600000000001 79.80000000000005 87.0800000000001 78.82000000000005 87.1300000000001 C 77.74000000000005 87.1900000000001 76.54000000000005 87.20000000000009 75.73000000000005 86.48000000000009 C 74.66000000000005 85.5200000000001 74.88000000000005 83.7100000000001 75.73000000000005 82.55000000000008 C 76.57000000000005 81.39000000000009 77.87000000000005 80.67000000000009 79.00000000000004 79.78000000000009 C 82.26000000000005 77.2100000000001 84.16000000000004 73.11000000000008 84.41000000000004 68.97000000000008 C 84.76 63.22 82.11 56.5 77.66 52.83 C 72.01 48.18 65.55 49.51 59 50.89 C 53.71 52 48.88 54.65 44.12 57.21 C 23.1 68.51 -1.03 78.6 -25.37 73.33 C -37.99 70.6 -49.73 63.59 -58.51 54.17 C -67.21 44.84 -75.3 30.08 -74.57 16.94 C -77.19999999999999 18.200000000000003 -79.8 19.53 -82.36 20.93 z M 0 362 C -104.8 362 -189.75 277.05 -189.75 172.25 C -189.75 67.45 -104.8 -17.5 0 -17.5 C 104.8 -17.5 189.75 67.45 189.75 172.25 C 189.75 277.05 104.8 362 0 362 Z" stroke-linecap="round" />
</g>
<g transform="matrix(1.33 0 0 -1.33 539.43 462.38)" clip-path="url(#CLIPPATH_40)"  >
<clipPath id="CLIPPATH_40" >
	<path transform="matrix(1 0 0 1 0 -57.78) translate(-420.94, -297.64)" d="M 0 595.276 L 841.89 595.276 L 841.89 0 L 0 0 Z" stroke-linecap="round" />
</clipPath>
<path style="stroke: rgb(0,0,0); stroke-width: 2; stroke-dasharray: none; stroke-linecap: butt; stroke-dashoffset: 0; stroke-linejoin: miter; stroke-miterlimit: 10; fill: rgb(119,82,158); fill-opacity: 0.34; fill-rule: nonzero; opacity: 1;" vector-effect="non-scaling-stroke"  transform=" translate(172.25, 0)" d="M 0 0 C 0 -95.13 -77.12 -172.25 -172.25 -172.25 C -193.36 -172.25 -213.59 -168.45 -232.28 -161.5 C -234.16 -149.75 -226.42 -136.85 -218.66 -128.63 C -207.96 -117.27 -192.44 -109.44 -176.98 -111.49 C -168.57999999999998 -112.6 -160.83999999999997 -116.47 -153.28 -120.28 C -146.45 -123.72 -139.62 -127.16 -132.8 -130.6 C -123.32000000000001 -135.37 -115.43 -139.95 -104.44000000000001 -138.72 C -95.53000000000002 -137.72 -86.9 -133.60999999999999 -80.84 -126.95 C -77.10000000000001 -122.85000000000001 -74.36 -117.93 -72.47 -112.73 C -70.94 -108.47 -71.65 -102.04 -66.76 -101.31 C -64.35000000000001 -100.94 -62.480000000000004 -98.87 -61.660000000000004 -96.58 C -60.830000000000005 -94.28999999999999 -60.86000000000001 -91.78999999999999 -60.89 -89.36 C -60.93 -85.92999999999999 -60.97 -82.49 -61.02 -79.06 C -61.02 -78.68 -60.99 -78.22 -60.67 -78.02 C -60.38 -77.83999999999999 -60.010000000000005 -77.95 -59.690000000000005 -78.05 C -55.77 -79.34 -51.52 -79.64999999999999 -47.45 -78.95 C -37.620000000000005 -77.25 -38.440000000000005 -68.4 -40.5 -60.64 C -41.95 -55.15 -44.51 -50.03 -46.86 -44.85 C -50.36 -37.15 -53.41 -29.240000000000002 -55.99 -21.17 C -58.02 -14.820000000000002 -57.45 -14.560000000000002 -54.02 -9.350000000000001 C -51.28 -5.1800000000000015 -49.730000000000004 -0.15000000000000213 -48.28 4.589999999999998 C -43.06 21.669999999999995 -40.25 36.51 -43.94 54.23 C -54.839999999999996 106.53999999999999 -102.19999999999999 144.45 -153.36 154.41 C -207.20000000000002 164.88 -266.88 131.95 -292.8 84.99 C -305.19 62.559999999999995 -310.45 36.03999999999999 -306.32 10.75 C -304.61 0.23000000000000043 -301.33 -9.96 -299.01 -20.37 C -296.7 -30.78 -295.36 -41.64 -297.57 -52.07 C -298.9 -58.33 -301.63 -64.38 -305.75 -69.3 C -309.61 -73.92999999999999 -317.92 -78.00999999999999 -324.46 -80.69 C -337.26 -56.62 -344.5 -29.15 -344.5 0 C -344.5 95.13 -267.38 172.25 -172.25 172.25 C -77.12 172.25 0 95.13 0 0 Z" stroke-linecap="round" />
</g>
<g transform="matrix(1.33 0 0 -1.33 521.42 470.31)" clip-path="url(#CLIPPATH_41)"  >
<clipPath id="CLIPPATH_41" >
	<path transform="matrix(1 0 0 1 13.63 -49.77) translate(-420.94, -297.64)" d="M 0 595.276 L 841.89 595.276 L 841.89 0 L 0 0 Z" stroke-linecap="round" />
</clipPath>
<path style="stroke: rgb(0,0,0); stroke-width: 2; stroke-dasharray: none; stroke-linecap: butt; stroke-dashoffset: 0; stroke-linejoin: miter; stroke-miterlimit: 10; fill: rgb(119,82,158); fill-opacity: 0.18; fill-rule: nonzero; opacity: 1;" vector-effect="non-scaling-stroke"  transform=" translate(81.08, 9.27)" d="M 0 0 C -1.06 -4.08 -3.32 -12.17 -7.29 -16.54 C -9.07 -18.5 -11.19 -19.71 -13.7 -19.47 C -16.14 -19.25 -18.35 -17.7 -19.669999999999998 -15.639999999999999 C -21.7 -12.479999999999999 -21.279999999999998 -8.719999999999999 -19.72 -5.299999999999999 C -12.919999999999998 9.56 -11.509999999999998 27.730000000000004 -18.24 42.88 C -26.46 61.36 -46.65 73.75 -66.16 76.56 C -82.97 78.99000000000001 -99.87 69.21000000000001 -110.36 56.68000000000001 C -122.99 41.61000000000001 -125.55 24.470000000000006 -119.32 5.840000000000003 C -117.08999999999999 -0.8399999999999963 -114 -5.0799999999999965 -110.08 -10.489999999999995 C -106.69 -15.149999999999995 -106.78999999999999 -22.689999999999994 -112.57 -25.469999999999995 C -124.78 -31.329999999999995 -135.04999999999998 -5.169999999999995 -137.64999999999998 2.9900000000000055 C -144.80999999999997 25.520000000000007 -139.77999999999997 49.61 -124.18999999999997 67.4 C -107.78999999999996 86.10000000000001 -80.23999999999997 96.91000000000001 -55.26999999999997 91.2 C -40.39 87.8 -25.86 80.27 -15.8 68.6 C -5.9 57.11 0.91 42.51 2.16 27.32 C 2.91 18.23 2.29 8.84 0 0 Z M 36.02 -33.44 C 33.870000000000005 -27.019999999999996 30.980000000000004 -21.189999999999998 29.580000000000002 -14.579999999999998 C 29.090000000000003 -12.229999999999999 28.66 -9.679999999999998 29.700000000000003 -7.519999999999999 C 30.470000000000002 -5.909999999999998 31.940000000000005 -4.769999999999999 33.290000000000006 -3.5999999999999988 C 44.480000000000004 6.150000000000001 47.260000000000005 20.500000000000004 46.370000000000005 34.79 C 44.870000000000005 58.86 32.52 82.96000000000001 16.660000000000004 100.75 C -28.809999999999995 151.79 -112.47999999999999 149.95 -156.49 98.06 C -179.56 70.86 -189.3 32.86 -182.17000000000002 -2.0799999999999983 C -179.42000000000002 -15.549999999999999 -174.3 -28.799999999999997 -174.97000000000003 -42.53 C -175.50000000000003 -53.18 -179.54000000000002 -63.22 -184.81000000000003 -72.37 C -187.67000000000004 -77.33 -190.90000000000003 -82.10000000000001 -194.67000000000002 -86.41 C -198.62 -90.92 -203.33 -94.09 -207.85000000000002 -97.92 C -208.27 -98.28 -208.72000000000003 -98.72 -208.69000000000003 -99.28 C -208.68000000000004 -99.51 -208.58 -99.74 -208.47000000000003 -99.95 C -207.60000000000002 -101.71000000000001 -206.33000000000004 -103.14 -205.13000000000002 -104.68 C -203.56000000000003 -106.68 -201.93000000000004 -108.64 -200.24000000000004 -110.55000000000001 C -196.86000000000004 -114.39000000000001 -193.24000000000004 -118.01 -189.48000000000005 -121.48000000000002 C -187.56000000000006 -123.25000000000001 -179.70000000000005 -131.45000000000002 -178.51000000000005 -131.3 C -178.16000000000005 -131.25 -177.86000000000004 -130.98000000000002 -177.69000000000005 -130.66000000000003 C -177.52000000000007 -130.34000000000003 -177.46000000000006 -129.98000000000002 -177.39000000000004 -129.63000000000002 C -176.89000000000004 -126.78000000000003 -176.41000000000005 -123.94000000000003 -175.64000000000004 -121.14000000000003 C -174.27000000000004 -116.20000000000003 -172.20000000000005 -111.47000000000003 -169.70000000000005 -107.00000000000003 C -164.68000000000004 -98.03000000000003 -157.95000000000005 -90.03000000000003 -150.43000000000004 -83.05000000000003 C -149.65000000000003 -82.33000000000003 -148.86000000000004 -81.61000000000003 -148.06000000000003 -80.91000000000003 C -137.22000000000003 -71.41000000000003 -124.86000000000003 -63.880000000000024 -112.36000000000003 -56.800000000000026 C -100.50000000000003 -50.060000000000024 -87.59000000000003 -45.11000000000003 -77.61000000000003 -35.50000000000003 C -68.44000000000003 -26.67000000000003 -62.17000000000003 -13.910000000000029 -64.06000000000003 -1.3300000000000267 C -66.16000000000003 -1.9300000000000268 -68.39000000000003 -2.260000000000027 -70.71000000000004 -2.260000000000027 C -83.14000000000004 -2.260000000000027 -93.21000000000004 7.139999999999974 -93.21000000000004 18.739999999999974 C -93.21000000000004 38.869999999999976 -64.33000000000004 47.71999999999997 -52.88000000000004 31.60999999999997 C -44.290000000000035 19.51999999999997 -45.06000000000004 0.5299999999999727 -47.88000000000004 -13.300000000000026 C -51.110000000000035 -29.110000000000028 -56.890000000000036 -43.99000000000002 -70.31000000000003 -53.86000000000003 C -82.50000000000003 -62.83000000000003 -97.01000000000003 -67.81000000000003 -110.10000000000002 -75.23000000000003 C -110.37000000000002 -75.38000000000004 -110.63000000000002 -75.53000000000003 -110.89000000000003 -75.68000000000004 C -125.85000000000002 -84.30000000000004 -139.80000000000004 -95.44000000000004 -149.66000000000003 -109.78000000000003 C -154.84000000000003 -117.31000000000003 -158.83 -125.72000000000003 -161.06000000000003 -134.60000000000002 C -161.07000000000002 -134.64000000000001 -161.08000000000004 -134.69000000000003 -161.09000000000003 -134.73000000000002 C -161.46000000000004 -136.21 -161.86000000000004 -137.67000000000002 -162.22000000000003 -139.15 C -162.56000000000003 -140.56 -162.89000000000001 -141.99 -162.91000000000003 -143.45000000000002 C -162.91000000000003 -143.73000000000002 -162.90000000000003 -144.02 -162.83 -144.29000000000002 C -162.67000000000002 -144.85000000000002 -162.24 -145.10000000000002 -161.79000000000002 -145.40000000000003 C -161.3 -145.72000000000003 -160.82000000000002 -146.04000000000002 -160.33 -146.35000000000002 C -159.35000000000002 -146.98000000000002 -158.37 -147.60000000000002 -157.38000000000002 -148.21000000000004 C -154.90000000000003 -149.73000000000005 -152.38000000000002 -151.19000000000003 -149.82000000000002 -152.58000000000004 C -147.26000000000002 -153.98000000000005 -144.66000000000003 -155.31000000000003 -142.03000000000003 -156.57000000000005 C -142.76000000000002 -143.43000000000006 -134.67000000000002 -128.67000000000004 -125.97000000000003 -119.34000000000006 C -117.19000000000003 -109.92000000000006 -105.45000000000003 -102.91000000000005 -92.83000000000003 -100.18000000000006 C -68.49000000000002 -94.91000000000007 -44.36000000000003 -105.00000000000006 -23.340000000000032 -116.30000000000007 C -18.580000000000034 -118.86000000000007 -13.750000000000032 -121.51000000000006 -8.460000000000031 -122.62000000000006 C -1.9100000000000312 -124.00000000000006 4.549999999999969 -125.33000000000006 10.199999999999969 -120.68000000000006 C 14.64999999999997 -117.01000000000006 17.29999999999997 -110.29000000000006 16.949999999999967 -104.54000000000006 C 16.699999999999967 -100.40000000000006 14.799999999999967 -96.30000000000007 11.539999999999967 -93.73000000000006 C 10.409999999999968 -92.84000000000006 9.109999999999967 -92.12000000000006 8.269999999999968 -90.96000000000006 C 7.419999999999968 -89.80000000000007 7.199999999999967 -87.99000000000007 8.269999999999968 -87.03000000000006 C 9.079999999999968 -86.31000000000006 10.279999999999967 -86.32000000000006 11.359999999999967 -86.38000000000005 C 12.339999999999968 -86.43000000000005 26.31999999999997 -87.15000000000005 26.279999999999966 -86.09000000000005 C 26.099999999999966 -79.87000000000005 25.909999999999965 -73.65000000000005 25.719999999999967 -67.43000000000005 C 25.699999999999967 -67.04000000000005 25.709999999999965 -66.60000000000005 25.969999999999967 -66.31000000000004 C 26.22999999999997 -66.01000000000005 26.659999999999968 -65.96000000000005 27.04999999999997 -65.92000000000004 C 30.02999999999997 -65.66000000000004 32.58999999999997 -66.02000000000004 35.55999999999997 -66.18000000000005 C 38.849999999999966 -66.36000000000006 42.86999999999997 -65.86000000000006 44.209999999999965 -62.85000000000005 C 45.07999999999996 -60.88000000000005 44.40999999999997 -58.60000000000005 43.72999999999997 -56.56000000000005 C 41.15999999999997 -48.86000000000005 38.58999999999997 -41.15000000000005 36.01999999999997 -33.440000000000055 z M 0 0 C -1.06 -4.08 -3.32 -12.17 -7.29 -16.54 C -9.07 -18.5 -11.19 -19.71 -13.7 -19.47 C -16.14 -19.25 -18.35 -17.7 -19.669999999999998 -15.639999999999999 C -21.7 -12.479999999999999 -21.279999999999998 -8.719999999999999 -19.72 -5.299999999999999 C -12.919999999999998 9.56 -11.509999999999998 27.730000000000004 -18.24 42.88 C -26.46 61.36 -46.65 73.75 -66.16 76.56 C -82.97 78.99000000000001 -99.87 69.21000000000001 -110.36 56.68000000000001 C -122.99 41.61000000000001 -125.55 24.470000000000006 -119.32 5.840000000000003 C -117.08999999999999 -0.8399999999999963 -114 -5.0799999999999965 -110.08 -10.489999999999995 C -106.69 -15.149999999999995 -106.78999999999999 -22.689999999999994 -112.57 -25.469999999999995 C -124.78 -31.329999999999995 -135.04999999999998 -5.169999999999995 -137.64999999999998 2.9900000000000055 C -144.80999999999997 25.520000000000007 -139.77999999999997 49.61 -124.18999999999997 67.4 C -107.78999999999996 86.10000000000001 -80.23999999999997 96.91000000000001 -55.26999999999997 91.2 C -40.39 87.8 -25.86 80.27 -15.8 68.6 C -5.9 57.11 0.91 42.51 2.16 27.32 C 2.91 18.23 2.29 8.84 0 0 Z M 36.02 -33.44 C 33.870000000000005 -27.019999999999996 30.980000000000004 -21.189999999999998 29.580000000000002 -14.579999999999998 C 29.090000000000003 -12.229999999999999 28.66 -9.679999999999998 29.700000000000003 -7.519999999999999 C 30.470000000000002 -5.909999999999998 31.940000000000005 -4.769999999999999 33.290000000000006 -3.5999999999999988 C 44.480000000000004 6.150000000000001 47.260000000000005 20.500000000000004 46.370000000000005 34.79 C 44.870000000000005 58.86 32.52 82.96000000000001 16.660000000000004 100.75 C -28.809999999999995 151.79 -112.47999999999999 149.95 -156.49 98.06 C -179.56 70.86 -189.3 32.86 -182.17000000000002 -2.0799999999999983 C -179.42000000000002 -15.549999999999999 -174.3 -28.799999999999997 -174.97000000000003 -42.53 C -175.50000000000003 -53.18 -179.54000000000002 -63.22 -184.81000000000003 -72.37 C -187.67000000000004 -77.33 -190.90000000000003 -82.10000000000001 -194.67000000000002 -86.41 C -198.62 -90.92 -203.33 -94.09 -207.85000000000002 -97.92 C -208.27 -98.28 -208.72000000000003 -98.72 -208.69000000000003 -99.28 C -208.68000000000004 -99.51 -208.58 -99.74 -208.47000000000003 -99.95 C -207.60000000000002 -101.71000000000001 -206.33000000000004 -103.14 -205.13000000000002 -104.68 C -203.56000000000003 -106.68 -201.93000000000004 -108.64 -200.24000000000004 -110.55000000000001 C -196.86000000000004 -114.39000000000001 -193.24000000000004 -118.01 -189.48000000000005 -121.48000000000002 C -187.56000000000006 -123.25000000000001 -179.70000000000005 -131.45000000000002 -178.51000000000005 -131.3 C -178.16000000000005 -131.25 -177.86000000000004 -130.98000000000002 -177.69000000000005 -130.66000000000003 C -177.52000000000007 -130.34000000000003 -177.46000000000006 -129.98000000000002 -177.39000000000004 -129.63000000000002 C -176.89000000000004 -126.78000000000003 -176.41000000000005 -123.94000000000003 -175.64000000000004 -121.14000000000003 C -174.27000000000004 -116.20000000000003 -172.20000000000005 -111.47000000000003 -169.70000000000005 -107.00000000000003 C -164.68000000000004 -98.03000000000003 -157.95000000000005 -90.03000000000003 -150.43000000000004 -83.05000000000003 C -149.65000000000003 -82.33000000000003 -148.86000000000004 -81.61000000000003 -148.06000000000003 -80.91000000000003 C -137.22000000000003 -71.41000000000003 -124.86000000000003 -63.880000000000024 -112.36000000000003 -56.800000000000026 C -100.50000000000003 -50.060000000000024 -87.59000000000003 -45.11000000000003 -77.61000000000003 -35.50000000000003 C -68.44000000000003 -26.67000000000003 -62.17000000000003 -13.910000000000029 -64.06000000000003 -1.3300000000000267 C -66.16000000000003 -1.9300000000000268 -68.39000000000003 -2.260000000000027 -70.71000000000004 -2.260000000000027 C -83.14000000000004 -2.260000000000027 -93.21000000000004 7.139999999999974 -93.21000000000004 18.739999999999974 C -93.21000000000004 38.869999999999976 -64.33000000000004 47.71999999999997 -52.88000000000004 31.60999999999997 C -44.290000000000035 19.51999999999997 -45.06000000000004 0.5299999999999727 -47.88000000000004 -13.300000000000026 C -51.110000000000035 -29.110000000000028 -56.890000000000036 -43.99000000000002 -70.31000000000003 -53.86000000000003 C -82.50000000000003 -62.83000000000003 -97.01000000000003 -67.81000000000003 -110.10000000000002 -75.23000000000003 C -110.37000000000002 -75.38000000000004 -110.63000000000002 -75.53000000000003 -110.89000000000003 -75.68000000000004 C -125.85000000000002 -84.30000000000004 -139.80000000000004 -95.44000000000004 -149.66000000000003 -109.78000000000003 C -154.84000000000003 -117.31000000000003 -158.83 -125.72000000000003 -161.06000000000003 -134.60000000000002 C -161.07000000000002 -134.64000000000001 -161.08000000000004 -134.69000000000003 -161.09000000000003 -134.73000000000002 C -161.46000000000004 -136.21 -161.86000000000004 -137.67000000000002 -162.22000000000003 -139.15 C -162.56000000000003 -140.56 -162.89000000000001 -141.99 -162.91000000000003 -143.45000000000002 C -162.91000000000003 -143.73000000000002 -162.90000000000003 -144.02 -162.83 -144.29000000000002 C -162.67000000000002 -144.85000000000002 -162.24 -145.10000000000002 -161.79000000000002 -145.40000000000003 C -161.3 -145.72000000000003 -160.82000000000002 -146.04000000000002 -160.33 -146.35000000000002 C -159.35000000000002 -146.98000000000002 -158.37 -147.60000000000002 -157.38000000000002 -148.21000000000004 C -154.90000000000003 -149.73000000000005 -152.38000000000002 -151.19000000000003 -149.82000000000002 -152.58000000000004 C -147.26000000000002 -153.98000000000005 -144.66000000000003 -155.31000000000003 -142.03000000000003 -156.57000000000005 C -142.76000000000002 -143.43000000000006 -134.67000000000002 -128.67000000000004 -125.97000000000003 -119.34000000000006 C -117.19000000000003 -109.92000000000006 -105.45000000000003 -102.91000000000005 -92.83000000000003 -100.18000000000006 C -68.49000000000002 -94.91000000000007 -44.36000000000003 -105.00000000000006 -23.340000000000032 -116.30000000000007 C -18.580000000000034 -118.86000000000007 -13.750000000000032 -121.51000000000006 -8.460000000000031 -122.62000000000006 C -1.9100000000000312 -124.00000000000006 4.549999999999969 -125.33000000000006 10.199999999999969 -120.68000000000006 C 14.64999999999997 -117.01000000000006 17.29999999999997 -110.29000000000006 16.949999999999967 -104.54000000000006 C 16.699999999999967 -100.40000000000006 14.799999999999967 -96.30000000000007 11.539999999999967 -93.73000000000006 C 10.409999999999968 -92.84000000000006 9.109999999999967 -92.12000000000006 8.269999999999968 -90.96000000000006 C 7.419999999999968 -89.80000000000007 7.199999999999967 -87.99000000000007 8.269999999999968 -87.03000000000006 C 9.079999999999968 -86.31000000000006 10.279999999999967 -86.32000000000006 11.359999999999967 -86.38000000000005 C 12.339999999999968 -86.43000000000005 26.31999999999997 -87.15000000000005 26.279999999999966 -86.09000000000005 C 26.099999999999966 -79.87000000000005 25.909999999999965 -73.65000000000005 25.719999999999967 -67.43000000000005 C 25.699999999999967 -67.04000000000005 25.709999999999965 -66.60000000000005 25.969999999999967 -66.31000000000004 C 26.22999999999997 -66.01000000000005 26.659999999999968 -65.96000000000005 27.04999999999997 -65.92000000000004 C 30.02999999999997 -65.66000000000004 32.58999999999997 -66.02000000000004 35.55999999999997 -66.18000000000005 C 38.849999999999966 -66.36000000000006 42.86999999999997 -65.86000000000006 44.209999999999965 -62.85000000000005 C 45.07999999999996 -60.88000000000005 44.40999999999997 -58.60000000000005 43.72999999999997 -56.56000000000005 C 41.15999999999997 -48.86000000000005 38.58999999999997 -41.15000000000005 36.01999999999997 -33.440000000000055 z M 0 0 C -1.06 -4.08 -3.32 -12.17 -7.29 -16.54 C -9.07 -18.5 -11.19 -19.71 -13.7 -19.47 C -16.14 -19.25 -18.35 -17.7 -19.669999999999998 -15.639999999999999 C -21.7 -12.479999999999999 -21.279999999999998 -8.719999999999999 -19.72 -5.299999999999999 C -12.919999999999998 9.56 -11.509999999999998 27.730000000000004 -18.24 42.88 C -26.46 61.36 -46.65 73.75 -66.16 76.56 C -82.97 78.99000000000001 -99.87 69.21000000000001 -110.36 56.68000000000001 C -122.99 41.61000000000001 -125.55 24.470000000000006 -119.32 5.840000000000003 C -117.08999999999999 -0.8399999999999963 -114 -5.0799999999999965 -110.08 -10.489999999999995 C -106.69 -15.149999999999995 -106.78999999999999 -22.689999999999994 -112.57 -25.469999999999995 C -124.78 -31.329999999999995 -135.04999999999998 -5.169999999999995 -137.64999999999998 2.9900000000000055 C -144.80999999999997 25.520000000000007 -139.77999999999997 49.61 -124.18999999999997 67.4 C -107.78999999999996 86.10000000000001 -80.23999999999997 96.91000000000001 -55.26999999999997 91.2 C -40.39 87.8 -25.86 80.27 -15.8 68.6 C -5.9 57.11 0.91 42.51 2.16 27.32 C 2.91 18.23 2.29 8.84 0 0 Z M 36.02 -33.44 C 33.870000000000005 -27.019999999999996 30.980000000000004 -21.189999999999998 29.580000000000002 -14.579999999999998 C 29.090000000000003 -12.229999999999999 28.66 -9.679999999999998 29.700000000000003 -7.519999999999999 C 30.470000000000002 -5.909999999999998 31.940000000000005 -4.769999999999999 33.290000000000006 -3.5999999999999988 C 44.480000000000004 6.150000000000001 47.260000000000005 20.500000000000004 46.370000000000005 34.79 C 44.870000000000005 58.86 32.52 82.96000000000001 16.660000000000004 100.75 C -28.809999999999995 151.79 -112.47999999999999 149.95 -156.49 98.06 C -179.56 70.86 -189.3 32.86 -182.17000000000002 -2.0799999999999983 C -179.42000000000002 -15.549999999999999 -174.3 -28.799999999999997 -174.97000000000003 -42.53 C -175.50000000000003 -53.18 -179.54000000000002 -63.22 -184.81000000000003 -72.37 C -187.67000000000004 -77.33 -190.90000000000003 -82.10000000000001 -194.67000000000002 -86.41 C -198.62 -90.92 -203.33 -94.09 -207.85000000000002 -97.92 C -208.27 -98.28 -208.72000000000003 -98.72 -208.69000000000003 -99.28 C -208.68000000000004 -99.51 -208.58 -99.74 -208.47000000000003 -99.95 C -207.60000000000002 -101.71000000000001 -206.33000000000004 -103.14 -205.13000000000002 -104.68 C -203.56000000000003 -106.68 -201.93000000000004 -108.64 -200.24000000000004 -110.55000000000001 C -196.86000000000004 -114.39000000000001 -193.24000000000004 -118.01 -189.48000000000005 -121.48000000000002 C -187.56000000000006 -123.25000000000001 -179.70000000000005 -131.45000000000002 -178.51000000000005 -131.3 C -178.16000000000005 -131.25 -177.86000000000004 -130.98000000000002 -177.69000000000005 -130.66000000000003 C -177.52000000000007 -130.34000000000003 -177.46000000000006 -129.98000000000002 -177.39000000000004 -129.63000000000002 C -176.89000000000004 -126.78000000000003 -176.41000000000005 -123.94000000000003 -175.64000000000004 -121.14000000000003 C -174.27000000000004 -116.20000000000003 -172.20000000000005 -111.47000000000003 -169.70000000000005 -107.00000000000003 C -164.68000000000004 -98.03000000000003 -157.95000000000005 -90.03000000000003 -150.43000000000004 -83.05000000000003 C -149.65000000000003 -82.33000000000003 -148.86000000000004 -81.61000000000003 -148.06000000000003 -80.91000000000003 C -137.22000000000003 -71.41000000000003 -124.86000000000003 -63.880000000000024 -112.36000000000003 -56.800000000000026 C -100.50000000000003 -50.060000000000024 -87.59000000000003 -45.11000000000003 -77.61000000000003 -35.50000000000003 C -68.44000000000003 -26.67000000000003 -62.17000000000003 -13.910000000000029 -64.06000000000003 -1.3300000000000267 C -66.16000000000003 -1.9300000000000268 -68.39000000000003 -2.260000000000027 -70.71000000000004 -2.260000000000027 C -83.14000000000004 -2.260000000000027 -93.21000000000004 7.139999999999974 -93.21000000000004 18.739999999999974 C -93.21000000000004 38.869999999999976 -64.33000000000004 47.71999999999997 -52.88000000000004 31.60999999999997 C -44.290000000000035 19.51999999999997 -45.06000000000004 0.5299999999999727 -47.88000000000004 -13.300000000000026 C -51.110000000000035 -29.110000000000028 -56.890000000000036 -43.99000000000002 -70.31000000000003 -53.86000000000003 C -82.50000000000003 -62.83000000000003 -97.01000000000003 -67.81000000000003 -110.10000000000002 -75.23000000000003 C -110.37000000000002 -75.38000000000004 -110.63000000000002 -75.53000000000003 -110.89000000000003 -75.68000000000004 C -125.85000000000002 -84.30000000000004 -139.80000000000004 -95.44000000000004 -149.66000000000003 -109.78000000000003 C -154.84000000000003 -117.31000000000003 -158.83 -125.72000000000003 -161.06000000000003 -134.60000000000002 C -161.07000000000002 -134.64000000000001 -161.08000000000004 -134.69000000000003 -161.09000000000003 -134.73000000000002 C -161.46000000000004 -136.21 -161.86000000000004 -137.67000000000002 -162.22000000000003 -139.15 C -162.56000000000003 -140.56 -162.89000000000001 -141.99 -162.91000000000003 -143.45000000000002 C -162.91000000000003 -143.73000000000002 -162.90000000000003 -144.02 -162.83 -144.29000000000002 C -162.67000000000002 -144.85000000000002 -162.24 -145.10000000000002 -161.79000000000002 -145.40000000000003 C -161.3 -145.72000000000003 -160.82000000000002 -146.04000000000002 -160.33 -146.35000000000002 C -159.35000000000002 -146.98000000000002 -158.37 -147.60000000000002 -157.38000000000002 -148.21000000000004 C -154.90000000000003 -149.73000000000005 -152.38000000000002 -151.19000000000003 -149.82000000000002 -152.58000000000004 C -147.26000000000002 -153.98000000000005 -144.66000000000003 -155.31000000000003 -142.03000000000003 -156.57000000000005 C -142.76000000000002 -143.43000000000006 -134.67000000000002 -128.67000000000004 -125.97000000000003 -119.34000000000006 C -117.19000000000003 -109.92000000000006 -105.45000000000003 -102.91000000000005 -92.83000000000003 -100.18000000000006 C -68.49000000000002 -94.91000000000007 -44.36000000000003 -105.00000000000006 -23.340000000000032 -116.30000000000007 C -18.580000000000034 -118.86000000000007 -13.750000000000032 -121.51000000000006 -8.460000000000031 -122.62000000000006 C -1.9100000000000312 -124.00000000000006 4.549999999999969 -125.33000000000006 10.199999999999969 -120.68000000000006 C 14.64999999999997 -117.01000000000006 17.29999999999997 -110.29000000000006 16.949999999999967 -104.54000000000006 C 16.699999999999967 -100.40000000000006 14.799999999999967 -96.30000000000007 11.539999999999967 -93.73000000000006 C 10.409999999999968 -92.84000000000006 9.109999999999967 -92.12000000000006 8.269999999999968 -90.96000000000006 C 7.419999999999968 -89.80000000000007 7.199999999999967 -87.99000000000007 8.269999999999968 -87.03000000000006 C 9.079999999999968 -86.31000000000006 10.279999999999967 -86.32000000000006 11.359999999999967 -86.38000000000005 C 12.339999999999968 -86.43000000000005 26.31999999999997 -87.15000000000005 26.279999999999966 -86.09000000000005 C 26.099999999999966 -79.87000000000005 25.909999999999965 -73.65000000000005 25.719999999999967 -67.43000000000005 C 25.699999999999967 -67.04000000000005 25.709999999999965 -66.60000000000005 25.969999999999967 -66.31000000000004 C 26.22999999999997 -66.01000000000005 26.659999999999968 -65.96000000000005 27.04999999999997 -65.92000000000004 C 30.02999999999997 -65.66000000000004 32.58999999999997 -66.02000000000004 35.55999999999997 -66.18000000000005 C 38.849999999999966 -66.36000000000006 42.86999999999997 -65.86000000000006 44.209999999999965 -62.85000000000005 C 45.07999999999996 -60.88000000000005 44.40999999999997 -58.60000000000005 43.72999999999997 -56.56000000000005 C 41.15999999999997 -48.86000000000005 38.58999999999997 -41.15000000000005 36.01999999999997 -33.440000000000055 z" stroke-linecap="round" />
</g>
<g transform="matrix(0 0 0 0 0 0)"  >
<g style=""   >
</g>
</g>
<g transform="matrix(0 0 0 0 0 0)"  >
<g style=""   >
</g>
</g>
<g transform="matrix(0 0 0 0 0 0)"  >
<g style=""   >
</g>
</g>
<g transform="matrix(0 0 0 0 0 0)"  >
<g style=""   >
</g>
</g>
<g transform="matrix(0 0 0 0 0 0)"  >
<g style=""   >
</g>
</g>
<g transform="matrix(0 0 0 0 0 0)"  >
<g style=""   >
</g>
</g>
<g transform="matrix(0 0 0 0 0 0)"  >
<g style=""   >
</g>
</g>
<g transform="matrix(0 0 0 0 0 0)"  >
<g style=""   >
</g>
</g>
<g transform="matrix(0 0 0 0 0 0)"  >
<g style=""   >
</g>
</g>
<g transform="matrix(0 0 0 0 0 0)"  >
<g style=""   >
</g>
</g>
<g transform="matrix(0 0 0 0 0 0)"  >
<g style=""   >
</g>
</g>
<g transform="matrix(0 0 0 0 0 0)"  >
<g style=""   >
</g>
</g>
<g transform="matrix(0 0 0 0 0 0)"  >
<g style=""   >
</g>
</g>
</svg>